<svg width="221" height="36" viewBox="0 0 221 36" fill="none" xmlns="http://www.w3.org/2000/svg">
<g filter="url(#filter0_d_55_90)">
<path d="M4.31459 26.8125V0.181709H21.9471V4.82389H9.94503V11.1695H20.7768V15.8117H9.94503V26.8125H4.31459ZM33.1885 27.2026C31.1686 27.2026 29.4218 26.7735 27.9481 25.9153C26.4831 25.0484 25.3518 23.8434 24.5543 22.3003C23.7567 20.7486 23.3579 18.9498 23.3579 16.904C23.3579 14.8408 23.7567 13.0377 24.5543 11.4946C25.3518 9.94286 26.4831 8.73789 27.9481 7.87967C29.4218 7.01278 31.1686 6.57934 33.1885 6.57934C35.2083 6.57934 36.9507 7.01278 38.4158 7.87967C39.8895 8.73789 41.0251 9.94286 41.8227 11.4946C42.6202 13.0377 43.019 14.8408 43.019 16.904C43.019 18.9498 42.6202 20.7486 41.8227 22.3003C41.0251 23.8434 39.8895 25.0484 38.4158 25.9153C36.9507 26.7735 35.2083 27.2026 33.1885 27.2026ZM33.2145 22.9115C34.1334 22.9115 34.9006 22.6514 35.516 22.1313C36.1315 21.6025 36.5953 20.883 36.9074 19.9728C37.2282 19.0625 37.3885 18.0266 37.3885 16.865C37.3885 15.7033 37.2282 14.6674 36.9074 13.7572C36.5953 12.8469 36.1315 12.1274 35.516 11.5986C34.9006 11.0698 34.1334 10.8054 33.2145 10.8054C32.2869 10.8054 31.5067 11.0698 30.8739 11.5986C30.2497 12.1274 29.7773 12.8469 29.4565 13.7572C29.1444 14.6674 28.9884 15.7033 28.9884 16.865C28.9884 18.0266 29.1444 19.0625 29.4565 19.9728C29.7773 20.883 30.2497 21.6025 30.8739 22.1313C31.5067 22.6514 32.2869 22.9115 33.2145 22.9115ZM55.6452 27.2026C53.6253 27.2026 51.8786 26.7735 50.4048 25.9153C48.9398 25.0484 47.8085 23.8434 47.011 22.3003C46.2134 20.7486 45.8147 18.9498 45.8147 16.904C45.8147 14.8408 46.2134 13.0377 47.011 11.4946C47.8085 9.94286 48.9398 8.73789 50.4048 7.87967C51.8786 7.01278 53.6253 6.57934 55.6452 6.57934C57.665 6.57934 59.4075 7.01278 60.8725 7.87967C62.3462 8.73789 63.4818 9.94286 64.2794 11.4946C65.0769 13.0377 65.4757 14.8408 65.4757 16.904C65.4757 18.9498 65.0769 20.7486 64.2794 22.3003C63.4818 23.8434 62.3462 25.0484 60.8725 25.9153C59.4075 26.7735 57.665 27.2026 55.6452 27.2026ZM55.6712 22.9115C56.5901 22.9115 57.3573 22.6514 57.9728 22.1313C58.5883 21.6025 59.052 20.883 59.3641 19.9728C59.6849 19.0625 59.8453 18.0266 59.8453 16.865C59.8453 15.7033 59.6849 14.6674 59.3641 13.7572C59.052 12.8469 58.5883 12.1274 57.9728 11.5986C57.3573 11.0698 56.5901 10.8054 55.6712 10.8054C54.7436 10.8054 53.9634 11.0698 53.3306 11.5986C52.7064 12.1274 52.234 12.8469 51.9132 13.7572C51.6012 14.6674 51.4451 15.7033 51.4451 16.865C51.4451 18.0266 51.6012 19.0625 51.9132 19.9728C52.234 20.883 52.7064 21.6025 53.3306 22.1313C53.9634 22.6514 54.7436 22.9115 55.6712 22.9115ZM76.4375 27.1376C74.9204 27.1376 73.5464 26.7475 72.3154 25.9673C71.0931 25.1784 70.1222 24.0211 69.4027 22.4954C68.6918 20.961 68.3364 19.0799 68.3364 16.852C68.3364 14.5634 68.7048 12.6606 69.4417 11.1435C70.1786 9.61778 71.1581 8.47783 72.3804 7.72363C73.6114 6.96077 74.9594 6.57934 76.4245 6.57934C77.5428 6.57934 78.4747 6.77006 79.2202 7.15149C79.9744 7.52425 80.5812 7.99237 81.0407 8.55584C81.5088 9.11065 81.8642 9.65679 82.1069 10.1943H82.276V0.181709H87.8024V26.8125H82.341V23.6137H82.1069C81.8469 24.1685 81.4784 24.719 81.0016 25.2651C80.5335 25.8026 79.9224 26.249 79.1682 26.6044C78.4227 26.9599 77.5124 27.1376 76.4375 27.1376ZM78.1929 22.7295C79.0858 22.7295 79.84 22.4867 80.4555 22.0013C81.0797 21.5071 81.5565 20.818 81.8859 19.9337C82.224 19.0495 82.393 18.0136 82.393 16.826C82.393 15.6383 82.2283 14.6067 81.8989 13.7312C81.5695 12.8556 81.0927 12.1794 80.4685 11.7026C79.8444 11.2259 79.0858 10.9875 78.1929 10.9875C77.2827 10.9875 76.5155 11.2345 75.8913 11.7287C75.2672 12.2228 74.7947 12.9076 74.474 13.7832C74.1532 14.6587 73.9929 15.673 73.9929 16.826C73.9929 17.9876 74.1532 19.0148 74.474 19.9077C74.8034 20.792 75.2759 21.4855 75.8913 21.9883C76.5155 22.4824 77.2827 22.7295 78.1929 22.7295ZM100.936 26.8125V0.181709H111.442C113.462 0.181709 115.183 0.567474 116.605 1.339C118.026 2.10187 119.11 3.1638 119.856 4.52482C120.61 5.87716 120.987 7.43756 120.987 9.20601C120.987 10.9745 120.605 12.5349 119.843 13.8872C119.08 15.2395 117.974 16.2928 116.527 17.047C115.088 17.8012 113.345 18.1783 111.299 18.1783H104.603V13.6661H110.389C111.473 13.6661 112.366 13.4798 113.068 13.107C113.779 12.7256 114.307 12.2011 114.654 11.5336C115.01 10.8574 115.187 10.0816 115.187 9.20601C115.187 8.32178 115.01 7.55025 114.654 6.89142C114.307 6.22392 113.779 5.70812 113.068 5.34403C112.357 4.97126 111.455 4.78488 110.363 4.78488H106.566V26.8125H100.936ZM129.699 27.1896C128.425 27.1896 127.289 26.9685 126.292 26.5264C125.295 26.0756 124.506 25.4125 123.926 24.5369C123.353 23.6527 123.067 22.5517 123.067 21.2341C123.067 20.1245 123.271 19.1926 123.679 18.4384C124.086 17.6842 124.641 17.0774 125.343 16.6179C126.045 16.1584 126.843 15.8117 127.736 15.5776C128.637 15.3436 129.582 15.1789 130.57 15.0835C131.732 14.9621 132.668 14.8494 133.379 14.7454C134.09 14.6327 134.606 14.468 134.926 14.2513C135.247 14.0346 135.408 13.7138 135.408 13.2891V13.211C135.408 12.3875 135.147 11.7503 134.627 11.2995C134.116 10.8488 133.388 10.6234 132.443 10.6234C131.446 10.6234 130.653 10.8444 130.063 11.2865C129.474 11.72 129.084 12.2661 128.893 12.925L123.77 12.5089C124.03 11.2952 124.541 10.2463 125.304 9.36205C126.067 8.46916 127.051 7.78431 128.256 7.30753C129.469 6.82207 130.874 6.57934 132.469 6.57934C133.578 6.57934 134.64 6.70937 135.655 6.96944C136.678 7.22951 137.583 7.63261 138.372 8.17875C139.17 8.72489 139.798 9.42707 140.258 10.2853C140.717 11.1348 140.947 12.1534 140.947 13.3411V26.8125H135.694V24.0428H135.538C135.217 24.667 134.788 25.2174 134.25 25.6942C133.713 26.1623 133.067 26.5308 132.313 26.7995C131.559 27.0596 130.687 27.1896 129.699 27.1896ZM131.285 23.3666C132.1 23.3666 132.82 23.2062 133.444 22.8855C134.068 22.5561 134.558 22.114 134.913 21.5592C135.269 21.0044 135.447 20.3759 135.447 19.6737V17.5541C135.273 17.6668 135.035 17.7709 134.731 17.8662C134.437 17.9529 134.103 18.0353 133.73 18.1133C133.357 18.1826 132.985 18.2476 132.612 18.3083C132.239 18.3603 131.901 18.408 131.598 18.4514C130.947 18.5467 130.38 18.6984 129.894 18.9065C129.409 19.1145 129.032 19.3963 128.763 19.7517C128.494 20.0985 128.36 20.5319 128.36 21.052C128.36 21.8062 128.633 22.3827 129.179 22.7815C129.734 23.1716 130.436 23.3666 131.285 23.3666ZM150.784 0.181709V26.8125H145.245V0.181709H150.784ZM160.917 27.1896C159.642 27.1896 158.507 26.9685 157.51 26.5264C156.513 26.0756 155.724 25.4125 155.143 24.5369C154.571 23.6527 154.285 22.5517 154.285 21.2341C154.285 20.1245 154.489 19.1926 154.896 18.4384C155.304 17.6842 155.858 17.0774 156.561 16.6179C157.263 16.1584 158.06 15.8117 158.953 15.5776C159.855 15.3436 160.8 15.1789 161.788 15.0835C162.95 14.9621 163.886 14.8494 164.597 14.7454C165.308 14.6327 165.823 14.468 166.144 14.2513C166.465 14.0346 166.625 13.7138 166.625 13.2891V13.211C166.625 12.3875 166.365 11.7503 165.845 11.2995C165.334 10.8488 164.605 10.6234 163.66 10.6234C162.664 10.6234 161.87 10.8444 161.281 11.2865C160.691 11.72 160.301 12.2661 160.111 12.925L154.987 12.5089C155.247 11.2952 155.759 10.2463 156.522 9.36205C157.285 8.46916 158.268 7.78431 159.473 7.30753C160.687 6.82207 162.091 6.57934 163.686 6.57934C164.796 6.57934 165.858 6.70937 166.872 6.96944C167.895 7.22951 168.801 7.63261 169.59 8.17875C170.388 8.72489 171.016 9.42707 171.475 10.2853C171.935 11.1348 172.165 12.1534 172.165 13.3411V26.8125H166.911V24.0428H166.755C166.435 24.667 166.005 25.2174 165.468 25.6942C164.93 26.1623 164.285 26.5308 163.53 26.7995C162.776 27.0596 161.905 27.1896 160.917 27.1896ZM162.503 23.3666C163.318 23.3666 164.038 23.2062 164.662 22.8855C165.286 22.5561 165.776 22.114 166.131 21.5592C166.487 21.0044 166.664 20.3759 166.664 19.6737V17.5541C166.491 17.6668 166.252 17.7709 165.949 17.8662C165.654 17.9529 165.321 18.0353 164.948 18.1133C164.575 18.1826 164.202 18.2476 163.83 18.3083C163.457 18.3603 163.119 18.408 162.815 18.4514C162.165 18.5467 161.597 18.6984 161.112 18.9065C160.626 19.1145 160.249 19.3963 159.981 19.7517C159.712 20.0985 159.577 20.5319 159.577 21.052C159.577 21.8062 159.851 22.3827 160.397 22.7815C160.951 23.1716 161.654 23.3666 162.503 23.3666ZM185.487 27.2026C183.441 27.2026 181.681 26.7692 180.207 25.9023C178.742 25.0267 177.615 23.8131 176.826 22.2613C176.046 20.7096 175.656 18.9238 175.656 16.904C175.656 14.8581 176.05 13.0637 176.839 11.5206C177.637 9.96887 178.768 8.75956 180.233 7.89267C181.698 7.01712 183.441 6.57934 185.461 6.57934C187.203 6.57934 188.729 6.89575 190.038 7.52858C191.347 8.16141 192.383 9.04997 193.145 10.1943C193.908 11.3386 194.329 12.6822 194.407 14.2253H189.179C189.032 13.2284 188.642 12.4265 188.009 11.8197C187.385 11.2042 186.566 10.8964 185.552 10.8964C184.693 10.8964 183.943 11.1305 183.302 11.5986C182.669 12.0581 182.175 12.7299 181.82 13.6141C181.464 14.4984 181.286 15.569 181.286 16.826C181.286 18.1003 181.46 19.1839 181.807 20.0768C182.162 20.9697 182.66 21.6502 183.302 22.1183C183.943 22.5864 184.693 22.8205 185.552 22.8205C186.184 22.8205 186.752 22.6904 187.255 22.4304C187.766 22.1703 188.187 21.7932 188.516 21.2991C188.854 20.7963 189.075 20.1938 189.179 19.4916H194.407C194.32 21.0174 193.904 22.361 193.158 23.5227C192.422 24.6756 191.403 25.5772 190.103 26.2274C188.802 26.8775 187.264 27.2026 185.487 27.2026ZM207.056 27.2026C205.001 27.2026 203.233 26.7865 201.75 25.9543C200.277 25.1134 199.141 23.9258 198.344 22.3914C197.546 20.8483 197.147 19.0235 197.147 16.917C197.147 14.8625 197.546 13.0593 198.344 11.5076C199.141 9.95587 200.264 8.74656 201.711 7.87967C203.168 7.01278 204.876 6.57934 206.835 6.57934C208.152 6.57934 209.379 6.79173 210.515 7.2165C211.659 7.63261 212.656 8.2611 213.505 9.10198C214.364 9.94287 215.031 11.0005 215.508 12.2748C215.985 13.5404 216.223 15.0228 216.223 16.7219V18.2433H199.358V14.8104H211.009C211.009 14.0129 210.835 13.3064 210.489 12.6909C210.142 12.0754 209.661 11.5943 209.045 11.2475C208.438 10.8921 207.732 10.7144 206.926 10.7144C206.085 10.7144 205.339 10.9094 204.689 11.2995C204.048 11.681 203.545 12.1968 203.181 12.8469C202.817 13.4884 202.63 14.2036 202.622 14.9925V18.2563C202.622 19.2446 202.804 20.0985 203.168 20.818C203.541 21.5375 204.065 22.0923 204.741 22.4824C205.417 22.8725 206.219 23.0675 207.147 23.0675C207.762 23.0675 208.326 22.9809 208.837 22.8075C209.349 22.6341 209.786 22.374 210.151 22.0273C210.515 21.6805 210.792 21.2557 210.983 20.753L216.106 21.091C215.846 22.322 215.313 23.397 214.507 24.3159C213.709 25.2261 212.678 25.9369 211.412 26.4484C210.155 26.9512 208.703 27.2026 207.056 27.2026Z" fill="white"/>
</g>
<defs>
<filter id="filter0_d_55_90" x="0.314575" y="0.181641" width="219.909" height="35.021" filterUnits="userSpaceOnUse" color-interpolation-filters="sRGB">
<feFlood flood-opacity="0" result="BackgroundImageFix"/>
<feColorMatrix in="SourceAlpha" type="matrix" values="0 0 0 0 0 0 0 0 0 0 0 0 0 0 0 0 0 0 127 0" result="hardAlpha"/>
<feOffset dy="4"/>
<feGaussianBlur stdDeviation="2"/>
<feComposite in2="hardAlpha" operator="out"/>
<feColorMatrix type="matrix" values="0 0 0 0 0 0 0 0 0 0 0 0 0 0 0 0 0 0 0.25 0"/>
<feBlend mode="normal" in2="BackgroundImageFix" result="effect1_dropShadow_55_90"/>
<feBlend mode="normal" in="SourceGraphic" in2="effect1_dropShadow_55_90" result="shape"/>
</filter>
</defs>
</svg>
